Coordinates
version=1
nRows=26
nColumns=24
inDegrees=yes

Units are S.I. units (second, meters, Newtons, ...)
Angles are in degrees.

endheader
time	pelvis_tilt	pelvis_list	pelvis_rotation	pelvis_tx	pelvis_ty	pelvis_tz	hip_flexion_r	hip_adduction_r	hip_rotation_r	knee_angle_r	ankle_angle_r	subtalar_angle_r	mtp_angle_r	hip_flexion_l	hip_adduction_l	hip_rotation_l	knee_angle_l	ankle_angle_l	subtalar_angle_l	mtp_angle_l	lumbar_extension	lumbar_bending	lumbar_rotation
      0.68366667	     -3.07533394	      1.54677068	      4.92458702	     -0.35253290	      1.07695964	      0.28877248	     10.68740112	      0.59008966	     -3.65398512	    -17.08831956	     10.31918927	     -4.74662683	      1.54986950	     20.34809416	     -1.20753296	     -1.27633999	    -69.48394586	      9.31345601	      5.76242368	      0.31286685	     -8.98441545	      3.38611003	      0.79879856
      0.68783333	     -3.03629694	      1.67303734	      4.77431187	     -0.34736079	      1.07779150	      0.28929523	     10.17327361	      0.52915785	     -3.52462094	    -16.72515288	     10.39995801	     -4.67428240	      1.52140557	     20.78872540	     -1.10861336	     -1.50999396	    -69.01356016	      9.61313276	      6.13875054	      0.34832678	     -9.08731358	      3.19480018	      1.06922655
      0.69200000	     -3.04848581	      1.81676907	      4.60583659	     -0.34216623	      1.07849099	      0.28984211	      9.72678907	      0.44230911	     -3.39624772	    -16.38790225	     10.45543313	     -4.59376225	      1.49228345	     21.26548354	     -0.99499596	     -1.77384371	    -68.49346401	      9.89905028	      6.45170787	      0.38598744	     -9.10653596	      2.97100945	      1.26441144
      0.69616667	     -3.04097366	      1.96605895	      4.43664342	     -0.33699599	      1.07920386	      0.29036920	      9.26247354	      0.34553566	     -3.27585555	    -16.05489774	     10.50001196	     -4.50251669	      1.47676400	     21.70730831	     -0.87728257	     -2.04045266	    -67.92279069	     10.16499183	      6.75218981	      0.41188289	     -9.15680146	      2.76154692	      1.37401121
      0.70033333	     -3.01142772	      2.10201302	      4.26475651	     -0.33182445	      1.07991003	      0.29091565	      8.76607375	      0.26701649	     -3.14259850	    -15.69933342	     10.57008330	     -4.42914938	      1.45325541	     22.11501048	     -0.78492749	     -2.31152067	    -67.31489039	     10.42702365	      7.07633290	      0.44784166	     -9.22505555	      2.55600895	      1.59348016
      0.70450000	     -3.00327209	      2.23404315	      4.08642445	     -0.32666367	      1.08052632	      0.29146419	      8.29984000	      0.18736791	     -3.01175640	    -15.35241551	     10.60642700	     -4.34712216	      1.41867789	     22.53638339	     -0.70097274	     -2.59418302	    -66.67293169	     10.67665249	      7.35655307	      0.49609658	     -9.27672984	      2.33459827	      1.82833837
      0.70866667	     -3.02577354	      2.37561319	      3.91075840	     -0.32149602	      1.08104390	      0.29199697	      7.87597791	      0.08937005	     -2.89789543	    -15.02947228	     10.66765695	     -4.25303191	      1.40705989	     22.97716676	     -0.60510724	     -2.87895119	    -65.98769757	     10.89077338	      7.61861747	      0.51827496	     -9.27598102	      2.11686418	      1.90159804
      0.71283333	     -3.00346370	      2.49301930	      3.73752693	     -0.31635292	      1.08158702	      0.29252283	      7.39514916	      0.02059463	     -2.77551309	    -14.68104404	     10.75009614	     -4.17332934	      1.38050006	     23.36270952	     -0.54214014	     -3.15502469	    -65.27195406	     11.10894452	      7.91148202	      0.55846692	     -9.33877546	      1.92728666	      2.15026247
      0.71700000	     -2.99781877	      2.61055911	      3.56292439	     -0.31122206	      1.08206348	      0.29303259	      6.93926275	     -0.05478741	     -2.65858545	    -14.34327374	     10.80578893	     -4.08947667	      1.35162700	     23.75320526	     -0.47634985	     -3.42817163	    -64.51562096	     11.30169620	      8.15642188	      0.59910912	     -9.38001294	      1.73860198	      2.33235902
      0.72116667	     -3.00111003	      2.73137657	      3.39065849	     -0.30608666	      1.08248714	      0.29352952	      6.49383826	     -0.13808775	     -2.55076861	    -14.00909432	     10.87000950	     -3.99767595	      1.32332349	     24.13885013	     -0.40644700	     -3.70020277	    -63.71863060	     11.47085707	      8.38545482	      0.63796485	     -9.40862218	      1.54636384	      2.49535350
      0.72533333	     -2.99620493	      2.85384954	      3.22197766	     -0.30096207	      1.08287564	      0.29401416	      6.04356503	     -0.22671130	     -2.45723342	    -13.68254702	     10.94816915	     -3.89664617	      1.29994651	     24.50266581	     -0.33425010	     -3.96723491	    -62.88365948	     11.61754164	      8.58875164	      0.66999463	     -9.44721900	      1.35374954	      2.63580840
      0.72950000	     -3.00095709	      2.96405111	      3.05759167	     -0.29584824	      1.08319763	      0.29447552	      5.60640008	     -0.30649211	     -2.37174323	    -13.35909840	     11.02458388	     -3.79417742	      1.27800786	     24.86760629	     -0.27293652	     -4.22396283	    -62.01837712	     11.74982958	      8.77916377	      0.69800877	     -9.47271440	      1.17640784	      2.77451798
      0.73366667	     -3.02517192	      3.06986175	      2.89986560	     -0.29073718	      1.08342871	      0.29491125	      5.19521925	     -0.38717167	     -2.29891961	    -13.04629933	     11.08050131	     -3.68604432	      1.26690411	     25.24201506	     -0.21002332	     -4.46557506	    -61.12037377	     11.86737659	      8.93591364	      0.71246378	     -9.47322920	      1.01578373	      2.84867518
      0.73783333	     -3.01234695	      3.16101858	      2.75091878	     -0.28564697	      1.08367849	      0.29532073	      4.73685364	     -0.45278621	     -2.23148946	    -12.71708179	     11.18479314	     -3.57422638	      1.24584271	     25.56692668	     -0.16212198	     -4.69206121	    -60.19374176	     11.96472293	      9.07896334	      0.73483794	     -9.52575611	      0.85628002	      3.03035237
      0.74200000	     -3.04796697	      3.25097288	      2.60608024	     -0.28055020	      1.08379497	      0.29570777	      4.34083663	     -0.52350585	     -2.17562384	    -12.40927494	     11.24632216	     -3.46397928	      1.23470586	     25.93053036	     -0.10667415	     -4.90384919	    -59.23234613	     12.04530786	      9.19000286	      0.74582294	     -9.51171066	      0.71618245	      3.10080970
      0.74616667	     -3.04250419	      3.33082463	      2.46896737	     -0.27548127	      1.08393381	      0.29606981	      3.89534773	     -0.58403787	     -2.12843224	    -12.08822022	     11.35285861	     -3.33935185	      1.21487980	     26.23903032	     -0.05900101	     -5.09965862	    -58.24164562	     12.10723112	      9.27100205	      0.76163424	     -9.55885952	      0.57078145	      3.25105899
      0.75033333	     -3.07351988	      3.40516152	      2.33888577	     -0.27040209	      1.08395259	      0.29639588	      3.49588141	     -0.64499076	     -2.09412833	    -11.78442422	     11.42662063	     -3.22440229	      1.20479397	     26.57350019	     -0.00983482	     -5.27825836	    -57.22097884	     12.15911033	      9.33404581	      0.76805598	     -9.55262944	      0.45142404	      3.30876650
      0.75450000	     -3.07710458	      3.47315428	      2.21621819	     -0.26535242	      1.08397993	      0.29670636	      3.06586388	     -0.69970357	     -2.06974884	    -11.47622133	     11.54011540	     -3.07967676	      1.18434061	     26.86660933	      0.03972390	     -5.43357220	    -56.16912900	     12.18502956	      9.34656165	      0.77779173	     -9.59232682	      0.32977802	      3.43772917
      0.75866667	     -3.12966632	      3.52361421	      2.10144808	     -0.26029219	      1.08384755	      0.29698432	      2.69335874	     -0.73958786	     -2.04789109	    -11.17915378	     11.62440912	     -2.96853043	      1.17489192	     27.20470029	      0.07506150	     -5.57508860	    -55.10072655	     12.21104993	      9.36179570	      0.77996383	     -9.55729988	      0.23876756	      3.47926734
      0.76283333	     -3.15923806	      3.57964981	      1.98896260	     -0.25524794	      1.08373428	      0.29724114	      2.29634501	     -0.78781192	     -2.03288631	    -10.88199226	     11.72413030	     -2.84110886	      1.16545741	     27.49798358	      0.12404187	     -5.69877689	    -53.98901946	     12.20965918	      9.32666725	      0.77996349	     -9.55948040	      0.13723192	      3.53636378
      0.76700000	     -3.19156174	      3.61464318	      1.88891233	     -0.25022106	      1.08353152	      0.29745653	      1.90334491	     -0.81562064	     -2.03046329	    -10.58728478	     11.83625938	     -2.70612777	      1.15540022	     27.79014028	      0.15935539	     -5.79438376	    -52.86718140	     12.20559648	      9.26749290	      0.77861722	     -9.56397939	      0.06361215	      3.59535130
      0.77116667	     -3.22489447	      3.63985668	      1.79464641	     -0.24520648	      1.08330216	      0.29764229	      1.51295121	     -0.83511145	     -2.03127303	    -10.29465176	     11.94181581	     -2.57274840	      1.14528165	     28.06840894	      0.19239140	     -5.86556237	    -51.71338598	     12.18906816	      9.18174709	      0.77560064	     -9.56324172	      0.00823272	      3.64399861
      0.77533333	     -3.27383113	      3.66125554	      1.70585309	     -0.24020006	      1.08297757	      0.29781664	      1.14242437	     -0.85154464	     -2.03457235	    -10.01038532	     12.05566172	     -2.44247571	      1.13611015	     28.35259601	      0.22660421	     -5.92008901	    -50.53878980	     12.16511421	      9.07660577	      0.77140514	     -9.54916497	     -0.04993354	      3.67600040
      0.77950000	     -3.31364261	      3.67323414	      1.62333648	     -0.23519966	      1.08263909	      0.29795693	      0.76093074	     -0.85959670	     -2.04349835	     -9.72407303	     12.16870210	     -2.30976567	      1.12634679	     28.61135635	      0.25949537	     -5.94873009	    -49.33438904	     12.13120190	      8.94437546	      0.76641979	     -9.54677412	     -0.08867530	      3.70388093
      0.78366667	     -3.37422376	      3.66705222	      1.55311611	     -0.23020747	      1.08218832	      0.29807005	      0.39882135	     -0.84835141	     -2.05168844	     -9.43106349	     12.28431467	     -2.18269142	      1.11731480	     28.88867373	      0.27840560	     -5.95668467	    -48.12476193	     12.10443444	      8.81125239	      0.76142497	     -9.52991577	     -0.10473049	      3.71985727
      0.78783333	     -3.42502298	      3.66394561	      1.48027537	     -0.22523044	      1.08171718	      0.29816970	      0.03943068	     -0.84237885	     -2.06786067	     -9.16987269	     12.40922258	     -2.05579106	      1.10614299	     29.13426505	      0.30940648	     -5.93603016	    -46.87517923	     12.06245494	      8.64153126	      0.75604185	     -9.51223951	     -0.12472700	      3.72591768
